<?xml version="1.0" encoding="UTF-8" standalone="no"?>
<svg
   xmlns:dc="http://purl.org/dc/elements/1.1/"
   xmlns:cc="http://creativecommons.org/ns#"
   xmlns:rdf="http://www.w3.org/1999/02/22-rdf-syntax-ns#"
   xmlns:svg="http://www.w3.org/2000/svg"
   xmlns="http://www.w3.org/2000/svg"
   xmlns:sodipodi="http://sodipodi.sourceforge.net/DTD/sodipodi-0.dtd"
   xmlns:inkscape="http://www.inkscape.org/namespaces/inkscape"
   version="1.1"
   x="0px"
   y="0px"
   width="500"
   height="500"
   viewBox="0 0 500 500"
   xml:space="preserve"
   id="svg4136"
   inkscape:version="0.91 r13725"
   sodipodi:docname="Logo-switch.svg"><metadata
     id="metadata4150"><rdf:RDF><cc:Work
         rdf:about=""><dc:format>image/svg+xml</dc:format><dc:type
           rdf:resource="http://purl.org/dc/dcmitype/StillImage" /><dc:title></dc:title></cc:Work></rdf:RDF></metadata><defs
     id="defs4148" /><sodipodi:namedview
     pagecolor="#ffffff"
     bordercolor="#666666"
     borderopacity="1"
     objecttolerance="10"
     gridtolerance="10"
     guidetolerance="10"
     inkscape:pageopacity="0"
     inkscape:pageshadow="2"
     inkscape:window-width="1920"
     inkscape:window-height="1027"
     id="namedview4146"
     showgrid="false"
     fit-margin-top="0"
     fit-margin-left="0"
     fit-margin-right="0"
     fit-margin-bottom="0"
     inkscape:zoom="0.7037037"
     inkscape:cx="70.305717"
     inkscape:cy="76.152417"
     inkscape:window-x="-8"
     inkscape:window-y="-8"
     inkscape:window-maximized="1"
     inkscape:current-layer="svg4136" /><style
     type="text/css"
     id="style4138">
	.st0{fill:#E60012;}
	.st1{fill:#FFFFFF;}
</style><g
     id="g4167"
     transform="matrix(3.9308175,0,0,3.9308175,-313.69825,-182.49448)"><path
       sodipodi:nodetypes="sssssssssssscssssssssssssssscscsscscc"
       class="st1"
       d="m 154.80484,173.6266 19.6,0 c 18,0 32.6,-14.6 32.6,-32.6 l 0,-62.000002 c 0,-18 -14.6,-32.6 -32.6,-32.6 l -19.7,0 c -0.5,0 -0.8,0.4 -0.8,0.8 l 0,125.500002 c 0,0.5 0.4,0.9 0.9,0.9 z m 24.2,-70.1 c 7.1,0 12.9,5.8 12.9,12.9 0,7.1 -5.8,12.9 -12.9,12.9 -7.1,0 -12.9,-5.8 -12.9,-12.9 0.1,-7.1 5.8,-12.9 12.9,-12.9 z M 99.604836,84.626598 c 0,6.6 5.400004,12 12.000004,12 6.6,0 12,-5.4 12,-12 0,-6.6 -5.4,-12 -12,-12 -6.7,0 -12.000004,5.3 -12.000004,12 z m 40.600004,-38.2 -27.8,0 c -18.000004,0 -32.600004,14.6 -32.600004,32.6 l 0,62.000002 c 0,18 14.6,32.6 32.600004,32.6 l 27.8,0 c 0.5,0 0.9,-0.4 0.9,-0.9 l 0,-125.400002 c 0,-0.5 -0.4,-0.9 -0.9,-0.9 z m -9.3,117.000002 -18.5,0 c -6,0 -11.6,-2.3 -15.800004,-6.6 -4.2,-4.2 -6.6,-9.8 -6.6,-15.8 l 0,-62.000002 c 0,-6 2.3,-11.6 6.6,-15.8 4.200004,-4.2 9.800004,-6.6 15.800004,-6.6 l 18.5,0 z"
       id="path4144"
       inkscape:connector-curvature="0"
       style="fill:#000000;fill-opacity:1" /></g></svg>